<mxfile host="app.diagrams.net" agent="Mozilla/5.0 (X11; Ubuntu; Linux x86_64; rv:132.0) Gecko/20100101 Firefox/132.0" version="26.0.9">
  <diagram id="YTEMxg6rr1jWMPWh26go" name="Pagina-1">
    <mxGraphModel dx="1044" dy="519" grid="1" gridSize="10" guides="1" tooltips="1" connect="1" arrows="1" fold="1" page="1" pageScale="1" pageWidth="827" pageHeight="1169" math="0" shadow="0">
      <root>
        <mxCell id="0" />
        <mxCell id="1" parent="0" />
        <mxCell id="-2ljBAzahtkMoFhpukIO-8" style="edgeStyle=orthogonalEdgeStyle;rounded=0;orthogonalLoop=1;jettySize=auto;html=1;entryX=0.5;entryY=0;entryDx=0;entryDy=0;" parent="1" source="-2ljBAzahtkMoFhpukIO-1" target="-2ljBAzahtkMoFhpukIO-2" edge="1">
          <mxGeometry relative="1" as="geometry" />
        </mxCell>
        <mxCell id="-2ljBAzahtkMoFhpukIO-1" value="START" style="ellipse;whiteSpace=wrap;html=1;" parent="1" vertex="1">
          <mxGeometry x="360" y="40" width="120" height="80" as="geometry" />
        </mxCell>
        <mxCell id="-2ljBAzahtkMoFhpukIO-9" style="edgeStyle=orthogonalEdgeStyle;rounded=0;orthogonalLoop=1;jettySize=auto;html=1;" parent="1" source="-2ljBAzahtkMoFhpukIO-2" target="-2ljBAzahtkMoFhpukIO-3" edge="1">
          <mxGeometry relative="1" as="geometry" />
        </mxCell>
        <mxCell id="-2ljBAzahtkMoFhpukIO-2" value="Read A, B" style="shape=parallelogram;perimeter=parallelogramPerimeter;whiteSpace=wrap;html=1;fixedSize=1;" parent="1" vertex="1">
          <mxGeometry x="360" y="160" width="120" height="60" as="geometry" />
        </mxCell>
        <mxCell id="-2ljBAzahtkMoFhpukIO-10" style="edgeStyle=orthogonalEdgeStyle;rounded=0;orthogonalLoop=1;jettySize=auto;html=1;" parent="1" source="-2ljBAzahtkMoFhpukIO-3" target="-2ljBAzahtkMoFhpukIO-6" edge="1">
          <mxGeometry relative="1" as="geometry" />
        </mxCell>
        <mxCell id="-2ljBAzahtkMoFhpukIO-15" value="TRUE" style="edgeLabel;html=1;align=center;verticalAlign=middle;resizable=0;points=[];" parent="-2ljBAzahtkMoFhpukIO-10" vertex="1" connectable="0">
          <mxGeometry x="-0.2" y="1" relative="1" as="geometry">
            <mxPoint as="offset" />
          </mxGeometry>
        </mxCell>
        <mxCell id="-2ljBAzahtkMoFhpukIO-12" style="edgeStyle=orthogonalEdgeStyle;rounded=0;orthogonalLoop=1;jettySize=auto;html=1;" parent="1" source="-2ljBAzahtkMoFhpukIO-3" target="-2ljBAzahtkMoFhpukIO-4" edge="1">
          <mxGeometry relative="1" as="geometry" />
        </mxCell>
        <mxCell id="-2ljBAzahtkMoFhpukIO-14" value="FALSE" style="edgeLabel;html=1;align=center;verticalAlign=middle;resizable=0;points=[];" parent="-2ljBAzahtkMoFhpukIO-12" vertex="1" connectable="0">
          <mxGeometry x="-0.2286" y="1" relative="1" as="geometry">
            <mxPoint as="offset" />
          </mxGeometry>
        </mxCell>
        <mxCell id="-2ljBAzahtkMoFhpukIO-3" value="&lt;div&gt;A &amp;gt; 0 AND B &amp;gt; 0 &lt;br&gt;&lt;/div&gt;&lt;div&gt;AND A % 1 == 0&lt;/div&gt;&lt;div&gt;AND B % 1 == 0&lt;/div&gt;&lt;div&gt;AND A &amp;lt; B&lt;br&gt;&lt;/div&gt;" style="rhombus;whiteSpace=wrap;html=1;" parent="1" vertex="1">
          <mxGeometry x="340" y="250" width="160" height="120" as="geometry" />
        </mxCell>
        <mxCell id="-2ljBAzahtkMoFhpukIO-13" style="edgeStyle=orthogonalEdgeStyle;rounded=0;orthogonalLoop=1;jettySize=auto;html=1;entryX=0.5;entryY=0;entryDx=0;entryDy=0;" parent="1" source="-2ljBAzahtkMoFhpukIO-4" target="fDjGtRUnjEiYK9YXNm00-2" edge="1">
          <mxGeometry relative="1" as="geometry">
            <mxPoint x="611" y="400" as="targetPoint" />
          </mxGeometry>
        </mxCell>
        <mxCell id="-2ljBAzahtkMoFhpukIO-4" value="Write &quot;NOOOO&quot;" style="shape=parallelogram;perimeter=parallelogramPerimeter;whiteSpace=wrap;html=1;fixedSize=1;" parent="1" vertex="1">
          <mxGeometry x="551" y="280" width="120" height="60" as="geometry" />
        </mxCell>
        <mxCell id="-2ljBAzahtkMoFhpukIO-11" style="edgeStyle=orthogonalEdgeStyle;rounded=0;orthogonalLoop=1;jettySize=auto;html=1;entryX=0;entryY=0.5;entryDx=0;entryDy=0;" parent="1" source="-2ljBAzahtkMoFhpukIO-6" target="fDjGtRUnjEiYK9YXNm00-2" edge="1">
          <mxGeometry relative="1" as="geometry">
            <mxPoint x="551" y="440" as="targetPoint" />
          </mxGeometry>
        </mxCell>
        <mxCell id="-2ljBAzahtkMoFhpukIO-6" value="Write (B*(B+1)/2) -&lt;div&gt;(A*(A-1)/2)&lt;/div&gt;" style="shape=parallelogram;perimeter=parallelogramPerimeter;whiteSpace=wrap;html=1;fixedSize=1;" parent="1" vertex="1">
          <mxGeometry x="350" y="410" width="140" height="60" as="geometry" />
        </mxCell>
        <mxCell id="fDjGtRUnjEiYK9YXNm00-4" style="edgeStyle=orthogonalEdgeStyle;rounded=0;orthogonalLoop=1;jettySize=auto;html=1;" edge="1" parent="1" source="fDjGtRUnjEiYK9YXNm00-2" target="fDjGtRUnjEiYK9YXNm00-3">
          <mxGeometry relative="1" as="geometry" />
        </mxCell>
        <mxCell id="fDjGtRUnjEiYK9YXNm00-2" value="" style="ellipse;whiteSpace=wrap;html=1;aspect=fixed;" vertex="1" parent="1">
          <mxGeometry x="596" y="425" width="30" height="30" as="geometry" />
        </mxCell>
        <mxCell id="fDjGtRUnjEiYK9YXNm00-3" value="END" style="ellipse;whiteSpace=wrap;html=1;" vertex="1" parent="1">
          <mxGeometry x="551" y="490" width="120" height="80" as="geometry" />
        </mxCell>
      </root>
    </mxGraphModel>
  </diagram>
</mxfile>
